/* XPM */
static char * c1_xpm[] = {
"64 64 10 1",
" 	c #108000",
".	c #006000",
"+	c #F0F000",
"@	c #F0D800",
"#	c #F0F0F0",
"$	c #F0B000",
"%	c #A86700",
"&	c #764500",
"*	c #A86D00",
"=	c #775200",
"                ...........++++++++++...........                ",
"                ........++++++++++++++@.........                ",
"                ......+++++########+++++@.......                ",
"                ....++++########+++++++++@@.....                ",
"                ...+++########+++++++++++++@....                ",
"                ..++########++++@@@@@@@@@+++@...                ",
"                .+#########+++@@@@@@@@@@@@@++@..                ",
"                +#########++@@@@@@@@@@@@@@@@@+@.                ",
"               +#########++@@@$$%%%%%%%%$$$@@@@$                ",
"              +#########++@@$$%%%%%%&&&&%%%$$@@$*               ",
"              +########++@@$%%%%....%%&&&&&%%$@@$*              ",
"             +########++@@$%%%........%&&&&&&%$@$*              ",
"            ++#######++@@$%%%..........%&&&&&&%$@$*             ",
"            +########++@@$%%............%&&&&&&%$$*             ",
"           +########++@@$%%..............%%&&&&&*$$*            ",
"           +########++@$%%...............%$%%&&&*$$**           ",
"...........+#######++@@$**                $$$*==&%$$%...........",
"..........++#######++@$**                 *$@$*=&%$$%...........",
"..........++######++@@$**                  $@@$*&&%$%...........",
".........++#######++@@$*                   *$@@$%&%$%%..........",
".........++######+++@@$*                    @@@$%&%$$%..........",
".........++######++@@$**                    @+@@$%%$$%..........",
".........+#######++@@$**                    @++@$%%$$%%.........",
"........++######+++@@$*                     @+++@$%%$%%.........",
"........++######+++@@$*                     @+++@$%%$$%.........",
"........++######+++@@$*                      ++++@$%$$%.........",
"........+#######+++@@$*                      +++++$%$$%%........",
"........+######+++@@@$*                      +++++$%$$%%........",
"........+######+++@@$*                       +++++$%$$%%........",
"........+######+++@@$*                       +#++++$@$%%........",
"........+######+++@@$*                       +#++++@$%&%........",
"........+######+++@@$*                       +##+++@$%&%........",
"........++#####+++@@$*                       +##+++@$%&%........",
"........++####++++@@$*                       +##+++@$%&%........",
"........++###+++++@@$*                       +###++@$%&%........",
"........++++++++++@@$*                       +###++@$%&%........",
"........++++++++++@@@$*                      +###++$%&&%........",
"........+++++++++++@@$*                      +###++$%&&%........",
"........+++++++++++@@$*                      +###++$%&%.........",
"........@++++++++++@@$*                     +####+$%&&%.........",
"........@++++++++++@@$*                     +####+$%&&%.........",
".........++++++++++@@@$*                    +####+$%&&%.........",
".........++++++++++@@@$*                    +###++$%&%..........",
".........@++++++++++@@$*                    +###++%&&%..........",
".........@++++++++++@@$*                   +####++%&&%..........",
"..........@+++++++++@@@$*                  +###++$%&%...........",
"..........@++++++++++@@$*                 +###++$%&&%...........",
"...........@++++++@++@@@$*                +###++$%&&%...........",
"           $@+++++@@++@@$%...............+####+$*===*           ",
"           *$@+++@@@++@@@$%..............+###++%===*            ",
"            *$@@@@@@@++@@@$$............+###++$%==*             ",
"            *$@@@@@@@@++@@@@$..........+###++$%&==*             ",
"             *$@@@@@@@@++@@@@$........+###++$%&&=*              ",
"              *$@@@@@@@@@++@@@@$....++#+++@$%&&&=*              ",
"              **$$@@@@@@@@@++@@@@@@++++@@@$$%&&&*               ",
"               *%%$@@@@@@@@@@@@@@@@@@@@@@$%%&&&%                ",
"                %&%$$@@@@@@@@@@@@@@@@@@@$%&&&&%.                ",
"                .%&%%$$$@@@@@@@@@@@@@$$$%&&&&%..                ",
"                ..%&&%%%$$$$$@@@@@$$$%%%&&&&%...                ",
"                ...%&&&&%%%%%$$$$$%%%&&&&&&%....                ",
"                ....%%&&&&&&&%%%%%&&&&&&&%%.....                ",
"                ......%%&&&&&&&&&&&&&&&%%.......                ",
"                ........%%%&&&&&&&&&&%%.........                ",
"                ...........%%%%%%%%%%...........                "};
