/* XPM */
static char * c3_xpm[] = {
"64 64 14 1",
" 	c #108000",
".	c #006000",
"+	c #F0F000",
"@	c #F0D800",
"#	c #F0F0F0",
"$	c #F0B000",
"%	c #B86800",
"&	c #FDFCFB",
"*	c #FEFEFE",
"=	c #0C610C",
"-	c #FBFCFB",
";	c #C3CAC1",
">	c #1C641C",
",	c #883800",
"                ............+++++++@............                ",
"                ..........+++++++++++@..........                ",
"                ........+++++#####+++++@........                ",
"                .......+++#######+++++++@.......                ",
"                ......++#########++@@@@++@......                ",
"                .....++#########++@@@@@@@+@.....                ",
"                .....++########++@@@@@@@@@@.....                ",
"                ....++########++@@@@@@@@@@$%....                ",
"                ....++########++@@@$$$@@@@@$....                ",
"                ...++########++@@@$&&&$$@@@$%...                ",
"                ...++########++@@$&***&&$@@$%...                ",
"                ..++########++@@$=-*****&$@$%%..                ",
"                ..++########++@@$.=;&****&$@$%..                ",
"                ..++#######+++@$...>$&***&$@$%..                ",
"                ..++#######++@@$...=$$&***&$$%..                ",
"                .++########++@@$....$@$&**&$$%%.                ",
"................ ++#######+++@$     $+$&**&$$%% ................",
"................ ++#######+++@$      ++$&*&$$%% ................",
"................ ++#######+++@$      ++@$&*&$%% ................",
"................ ++#######+++@$      +++$&*&$%% ................",
"................ ++######+++@@$      ++++$&&$$% ................",
"................++#######+++@@$      ++++$&&$$%%................",
"................++#######+++@@$      +++++$&$$%%................",
"................++#######+++@@$      +++++$&$$%%................",
"................++######++++@@$      +++++$&$$%%................",
"................++######++++@@$      +++++$&$$%%................",
"................++######++++@@$      +++++$&$$%%................",
"................++######++++@@$      ++++++$@$%%................",
"................++######+++@@@$      ++++++@@$%%................",
"................++######+++@@@$      ++++++@@$%%................",
"................++######+++@@@$      ++++++@@$%%................",
"................++######+++@@@$      ++++++@@$%%................",
"................+++####++++@@@$      ++++++@@$%%................",
"................+++####++++@@@$      ++#++++@$%%................",
"................+++++++++++@@@$      ++#++++@$%%................",
"................+++++++++++@@@$      ++#++++@$%%................",
"................+++++++++++@@@$      ++##+++@$%%................",
"................+++++++++++@@@$      ++##+++@$%%................",
"................+++++++++++@@@$      ++##+++@$%%................",
"................+++++++++++@@@$      ++##+++@$%%................",
"................@++++++++++@@@$      ++###++@$%%................",
"................$++++++++++@@@$      ++###++@$%%................",
"................%++++++++@+@@@$      ++###++$%%%................",
"................ ++++++++++@@@@$     ++###++$%% ................",
"................ ++++++++@++@@@$     ++###++$%% ................",
"................ @+++++++@++@@@$    ++####++$%% ................",
"................ @+++++++@@+@@@@$   ++####++$%% ................",
"................ $+++++++@@+@@@@@   ++###++$%%% ................",
"                .%@+++++@@@+@@@@@...++###++$%%%.                ",
"                ..@@+++@@@@+@@@@@@.++####++$%%..                ",
"                ..$@@@@@@@@@+@@@@@.++###++$%,%..                ",
"                ..$@@@@@@@@@+@@@@@@+####++$%,%..                ",
"                ..%$@@@@@@@@@@@@@@@@++#++$%,,%..                ",
"                ...$@@@@@@@@@+@@@@@@@@++@$%,%...                ",
"                ...%$@@@@@@@@@@@@@@@@@@@$%,,%...                ",
"                ....%$@@@@@@@@@@@@@@@@@@$%,%....                ",
"                ....%%$$@@@@@@@@@@@@@@@$%,,%....                ",
"                .....%%%$$@@@@@@@@@@@$$%,,%.....                ",
"                .....%,,%%$$$@@@@@$$$%%,,,%.....                ",
"                ......%,,,%%%$$$$$%%%,,,,%......                ",
"                .......%,,,,,%%%%%,,,,,,%.......                ",
"                ........%%,,,,,,,,,,,,%%........                ",
"                ..........%%,,,,,,,,%%..........                ",
"                ............%%%%%%%%............                "};
