/* XPM */
static char * c7_xpm[] = {
"64 64 8 1",
" 	c #108000",
".	c #006000",
"+	c #F0F000",
"@	c #F0B000",
"#	c #F0D800",
"$	c #F0F0F0",
"%	c #B86800",
"&	c #883800",
"                ..........++++++++++++..........                ",
"                ......@#++++++++++++++++#@......                ",
"                ...@#++++$$$$$$$$$$$$$$$+++#@...                ",
"                .@#+++$$$$$$$$$$$$$$$$$$$$$++#@.                ",
"               @#++$$$$$$+++++++++++++++$$$$$++#@               ",
"              @#+$+++++++############++++++$$$$++#              ",
"            %@#++++#+######@@@@@@@@@@@@@#++++$$$$+#@            ",
"           %@#++##++++##@@@%%%%%%%%%%%%%@@@#+++$$$++#           ",
"          %%@###++++##@@%%%&&&&&&&&&&&&&%%%@@#+++$$++#          ",
"         %%@###++++#@@%%&&&%%%%%%%%%%&&&&&&%%@@#++$$++#         ",
"        %%@###+++#@@%%&&%%%..........%%%&&&&&%%@@#+$$++#        ",
"       %%@###+++#@%%&&%%................%%&&&&&%%@#+++++#       ",
"      %%@###+++#@%&&%%....................%%&&&&&%@#++$++#      ",
"      %%@##++++@%&%%........................%%&&&&%@#+++++      ",
"     %%@##++++@%&%............................%&&&&%@#++++#     ",
"    %&%@#++++#@%%..............................%&&&&%@++$++@    ",
"....%%@@#++++@%%                                %&&&%@#++++#....",
"...%&%@#++++@%%.                                .%&&&%@+++++@...",
"...%&%@#++++@%..                                ..%&&%@#++++#...",
"..%&%@#++++@%%..                                ..%&&&%@+++++@..",
"..%&%@#++++@%...                                ...%&&%@#++++#..",
"..%&%@+++++@%...                                ...%&&&%@+++++..",
".%&&%@+++++%....                                ....%&&%@+++++@.",
".%&%@#++++@%....                                ....%&&%@#++++#.",
".%&%@+++++@.....                                .....%&&%@+++++.",
".%&%@+++++@.....                                .....%&&%@+++++.",
"%&&%@+++++@.....                                .....%&&%@+++++@",
"%&&%@+++++......                                ......%&%@#++++#",
"%&&%@+++++......                                ......%&%@#+++++",
"%&&%@+++++......                                ......%&%@#+++++",
"%&&%@+++++......                                ......%&%@#+++++",
"%&&%@+++++......                                ......%&%@#+++++",
"%&&%@+++++......                                ......%&%@#+++++",
"%&&%@+++++......                                ......%&%@#+++++",
"%&&%@+++++......                                ......%&%@#+++++",
"%&&%@#++++......                                ......%&%@#+++++",
"%&&&%@++++......                                ......%&%@#+++++",
"%&&&%@+++++.....                                .....%&%@##++++@",
".%&&%@+++++.....                                .....%&%@##++++.",
".%&&&%@++++.....                                .....%&%@#+++++.",
".%&&&%@+++++....                                ....%&%@##++++#.",
".%&&&%@+++++....                                ....%&%@##++++@.",
"..%&&%@++++++...                                ...%&%@#+#++++..",
"..%&&&%@+++++...                                ...%&%@#+++++#..",
"..%&&&%@++++++..                                ..%&%@#++#+++@..",
"...%&&&%@+++++..                                ..%&%@++++++#...",
"...%&&&&%@+++++.                                .%&%@#++#+++@...",
"....%&&&%@++++++                                %&%@#+++#++#....",
"    %&&&&%@++++$+..............................%%%@#+++#++#@    ",
"     %&&&&%@++++$+............................%%@@++++##+#@     ",
"      %&&&&%@+++$$++........................%%%@#+$++####@      ",
"      %&&&&&%@+++$$$++....................%%%@@++$$+###@@%      ",
"       %&&&&&%@++++$$$++................%%@@@++$$$+###@%%       ",
"        %&&&&&%@++++$$$$+++..........@@@@#+++$$$$+###@%%        ",
"         %&&&&&%@@#+++$$$$$+++++++++++++++$$$$$++###@%%         ",
"          %&&&&&%%@#++++$$$$$$$$$$$$$$$$$$$$$++###@@%%          ",
"           %&&&&&&%@@#+++++$$$$$$$$$$$$$$$+++###@@%%%           ",
"            %%&&&&&%%@@@@#+++++++++++++++++##@@@%%%%            ",
"              %&&&&&&%%%%@@@#+++++++++++#@@@@%%%&%              ",
"               %%&&&&&&&&%%%@@@@@@@@@@@@@%%%%&&%%               ",
"                .%%&&&&&&&&&%%%%%%%%%%%%%&&&&%%.                ",
"                ...%%%&&&&&&&&&&&&&&&&&&&&%%%...                ",
"                ......%%%%&&&&&&&&&&&&%%%%......                ",
"                ..........%%%%%%%%%%%%..........                "};
