/* XPM */
static char * coin_xpm[] = {
"64 64 530 2",
"  	c #108000",
". 	c #006000",
"+ 	c #015905",
"@ 	c #01560A",
"# 	c #015708",
"$ 	c #054D2A",
"% 	c #E6E700",
"& 	c #EDED00",
"* 	c #EAEB00",
"= 	c #E8E800",
"- 	c #E5E500",
"; 	c #E3E400",
"> 	c #EFEF00",
", 	c #0A4A43",
"' 	c #045020",
") 	c #044F22",
"! 	c #01560C",
"~ 	c #005F00",
"{ 	c #025315",
"] 	c #03511A",
"^ 	c #074C36",
"/ 	c #D8C400",
"( 	c #DFE000",
"_ 	c #DCDD00",
": 	c #F0F000",
"< 	c #E9E900",
"[ 	c #E0CA00",
"} 	c #074B37",
"| 	c #054E28",
"1 	c #044F21",
"2 	c #025611",
"3 	c #074C38",
"4 	c #F0D800",
"5 	c #F0F0F0",
"6 	c #EFEFEF",
"7 	c #EDEDED",
"8 	c #094A43",
"9 	c #107F00",
"0 	c #025915",
"a 	c #0A4F4A",
"b 	c #E9D300",
"c 	c #ECEC00",
"d 	c #ECECEC",
"e 	c #094A41",
"f 	c #025217",
"g 	c #107F02",
"h 	c #127443",
"i 	c #D3C200",
"j 	c #EBEC00",
"k 	c #EEEE00",
"l 	c #0F6235",
"m 	c #137847",
"n 	c #C7C000",
"o 	c #EFD700",
"p 	c #ECD400",
"q 	c #0F6330",
"r 	c #108002",
"s 	c #127A41",
"t 	c #B7B600",
"u 	c #E0E400",
"v 	c #EEEEEE",
"w 	c #EFAF00",
"x 	c #0E652B",
"y 	c #127B3E",
"z 	c #B1B300",
"A 	c #DADF00",
"B 	c #ECEDEC",
"C 	c #B76800",
"D 	c #F0B000",
"E 	c #0E6B1C",
"F 	c #127B3D",
"G 	c #B0B300",
"H 	c #D7DD00",
"I 	c #873800",
"J 	c #EDAF00",
"K 	c #AB6500",
"L 	c #0E710F",
"M 	c #117C27",
"N 	c #ADB100",
"O 	c #D4DA00",
"P 	c #EBECEB",
"Q 	c #863900",
"R 	c #853A00",
"S 	c #843B00",
"T 	c #833B00",
"U 	c #823C00",
"V 	c #9D6100",
"W 	c #0F7B01",
"X 	c #107F0B",
"Y 	c #157363",
"Z 	c #D0D800",
"` 	c #EAECEA",
" .	c #7E3F00",
"..	c #A56600",
"+.	c #9F6600",
"@.	c #9A6600",
"#.	c #966500",
"$.	c #936500",
"%.	c #956500",
"&.	c #986500",
"*.	c #A16600",
"=.	c #AA6700",
"-.	c #B26800",
";.	c #B66800",
">.	c #EAD400",
",.	c #0E6823",
"'.	c #108001",
").	c #13794B",
"!.	c #C9C000",
"~.	c #833C00",
"{.	c #A86700",
"].	c #976500",
"^.	c #806400",
"/.	c #0C5E59",
"(.	c #085E4D",
"_.	c #075F45",
":.	c #065F41",
"<.	c #065F3E",
"[.	c #065F3F",
"}.	c #075F47",
"|.	c #0A5E55",
"1.	c #A88B00",
"2.	c #C69900",
"3.	c #DEA600",
"4.	c #B46800",
"5.	c #EDD500",
"6.	c #A46300",
"7.	c #0E7012",
"8.	c #107E1D",
"9.	c #B6B600",
"0.	c #E6E800",
"a.	c #794300",
"b.	c #0E5D62",
"c.	c #075F44",
"d.	c #035F29",
"e.	c #016015",
"f.	c #00600C",
"g.	c #006008",
"h.	c #006004",
"i.	c #016017",
"j.	c #035F2B",
"k.	c #085F4A",
"l.	c #AAA600",
"m.	c #D2A000",
"n.	c #E8AB00",
"o.	c #EEAE00",
"p.	c #A06200",
"q.	c #0F7C01",
"r.	c #147656",
"s.	c #E0CE00",
"t.	c #7F3E00",
"u.	c #776300",
"v.	c #025F24",
"w.	c #016012",
"x.	c #045F36",
"y.	c #9C9C00",
"z.	c #CABC00",
"A.	c #E5CF00",
"B.	c #EDD600",
"C.	c #ECAE00",
"D.	c #B86800",
"E.	c #0E6920",
"F.	c #117B2D",
"G.	c #D0C500",
"H.	c #7F3F00",
"I.	c #8E6500",
"J.	c #095E50",
"K.	c #035F2A",
"L.	c #035F2D",
"M.	c #0B5E57",
"N.	c #BCB200",
"O.	c #DEE000",
"P.	c #A16200",
"Q.	c #166F6D",
"R.	c #E7D200",
"S.	c #803E00",
"T.	c #095E51",
"U.	c #026022",
"V.	c #02601F",
"W.	c #075F43",
"X.	c #A2A000",
"Y.	c #D7DA00",
"Z.	c #035D2B",
"`.	c #D4C300",
" +	c #EBEB00",
".+	c #873900",
"++	c #824100",
"@+	c #967100",
"#+	c #147655",
"$+	c #117E25",
"%+	c #108004",
"&+	c #10800C",
"*+	c #117D2F",
"=+	c #9AA700",
"-+	c #DBE000",
";+	c #EDEE00",
">+	c #A56100",
",+	c #005B02",
"'+	c #006001",
")+	c #0D5C5F",
"!+	c #E3CE00",
"~+	c #843D00",
"{+	c #735500",
"]+	c #727800",
"^+	c #117D2E",
"/+	c #108008",
"(+	c #598D00",
"_+	c #ABBF00",
":+	c #E4E700",
"<+	c #015E0C",
"[+	c #C1B600",
"}+	c #863A00",
"|+	c #7B4C00",
"1+	c #807600",
"2+	c #127C37",
"3+	c #107F0F",
"4+	c #739600",
"5+	c #C5D000",
"6+	c #AF6400",
"7+	c #015707",
"8+	c #025B22",
"9+	c #D3C300",
"0+	c #E8E900",
"a+	c #107F17",
"b+	c #117E22",
"c+	c #9CB500",
"d+	c #DCE100",
"e+	c #085A46",
"f+	c #DCDF00",
"g+	c #ECED00",
"h+	c #7E4900",
"i+	c #7F7600",
"j+	c #117D30",
"k+	c #709500",
"l+	c #C6D100",
"m+	c #B56700",
"n+	c #005F05",
"o+	c #A8A400",
"p+	c #E2E300",
"q+	c #853C00",
"r+	c #9C7000",
"s+	c #137752",
"t+	c #107F1B",
"u+	c #117D2B",
"v+	c #ABBE00",
"w+	c #E2E400",
"x+	c #B26600",
"y+	c #015806",
"z+	c #015E12",
"A+	c #B9B000",
"B+	c #E5E600",
"C+	c #814400",
"D+	c #8C7400",
"E+	c #127B3B",
"F+	c #107F19",
"G+	c #90A200",
"H+	c #D6DA00",
"I+	c #B66700",
"J+	c #025412",
"K+	c #025D23",
"L+	c #C7CD00",
"M+	c #EAEA00",
"N+	c #A86D00",
"O+	c #157361",
"P+	c #117E24",
"Q+	c #137949",
"R+	c #C8CE00",
"S+	c #065D3F",
"T+	c #D7DB00",
"U+	c #B56800",
"V+	c #13784D",
"W+	c #107F12",
"X+	c #BAC200",
"Y+	c #044F24",
"Z+	c #006002",
"`+	c #959800",
" @	c #DBDE00",
".@	c #8F7300",
"+@	c #117E26",
"@@	c #A8B300",
"#@	c #E0E200",
"$@	c #A46000",
"%@	c #015F0A",
"&@	c #DFE100",
"*@	c #107F15",
"=@	c #909400",
"-@	c #D9DC00",
";@	c #015D17",
">@	c #C2C900",
",@	c #E4E500",
"'@	c #A96700",
")@	c #14755B",
"!@	c #075F48",
"~@	c #CBD000",
"{@	c #035A25",
"]@	c #D5D900",
"^@	c #A46600",
"/@	c #13784E",
"(@	c #055F39",
"_@	c #C0C700",
":@	c #E9EA00",
"<@	c #055632",
"[@	c #A06600",
"}@	c #137947",
"|@	c #035F30",
"1@	c #B8C000",
"2@	c #E7E800",
"3@	c #065339",
"4@	c #9E6600",
"5@	c #127A42",
"6@	c #B5BE00",
"7@	c #9C6600",
"8@	c #BBC300",
"9@	c #01550E",
"0@	c #065438",
"a@	c #127A43",
"b@	c #045F37",
"c@	c #025411",
"d@	c #065635",
"e@	c #E3E500",
"f@	c #137948",
"g@	c #CDD200",
"h@	c #853800",
"i@	c #025313",
"j@	c #055832",
"k@	c #DDE000",
"l@	c #025314",
"m@	c #04592C",
"n@	c #D6D900",
"o@	c #147559",
"p@	c #0B5E56",
"q@	c #DADD00",
"r@	c #035B23",
"s@	c #C9CE00",
"t@	c #157166",
"u@	c #0F5D66",
"v@	c #015D16",
"w@	c #B5AE00",
"x@	c #823D00",
"y@	c #907300",
"z@	c #127C3A",
"A@	c #BCC400",
"B@	c #E7E8E7",
"C@	c #005F07",
"D@	c #9A9B00",
"E@	c #D2D600",
"F@	c #9F6F00",
"G@	c #147754",
"H@	c #CCD100",
"I@	c #075E47",
"J@	c #C1C800",
"K@	c #AB6C00",
"L@	c #167069",
"M@	c #117E2A",
"N@	c #15745F",
"O@	c #074B35",
"P@	c #035F2C",
"Q@	c #A5B100",
"R@	c #B06A00",
"S@	c #176B78",
"T@	c #117D32",
"U@	c #166D72",
"V@	c #E4E600",
"W@	c #015F17",
"X@	c #848D00",
"Y@	c #B36900",
"Z@	c #997100",
"`@	c #13784C",
" #	c #137850",
".#	c #CDD600",
"+#	c #035219",
"@#	c #647B00",
"##	c #B0BA00",
"$#	c #E1E300",
"%#	c #A46E00",
"&#	c #117F1F",
"*#	c #16706A",
"=#	c #025F1F",
"-#	c #939700",
";#	c #CFD400",
">#	c #EEAF00",
",#	c #AD6B00",
"'#	c #867500",
")#	c #117D33",
"!#	c #127A44",
"~#	c #EAEBEA",
"{#	c #074B38",
"]#	c #6C8000",
"^#	c #B2BC00",
"/#	c #9A7000",
"(#	c #14755A",
"_#	c #EDEEED",
":#	c #426D00",
"<#	c #8D9200",
"[#	c #A96C00",
"}#	c #827600",
"|#	c #127C39",
"1#	c #B5C500",
"2#	c #E4E7E4",
"3#	c #01600E",
"4#	c #687E00",
"5#	c #B3AC00",
"6#	c #E9AD00",
"7#	c #9E6F00",
"8#	c #6F7900",
"9#	c #8EAD00",
"0#	c #D6DCD6",
"a#	c #084B3D",
"b#	c #446E00",
"c#	c #999A00",
"d#	c #D8DB00",
"e#	c #EED600",
"f#	c #E4AB00",
"g#	c #927200",
"h#	c #147753",
"i#	c #117E28",
"j#	c #13784F",
"k#	c #C9D300",
"l#	c #01550D",
"m#	c #107F0E",
"n#	c #838E00",
"o#	c #DFA700",
"p#	c #8D6500",
"q#	c #095E4E",
"r#	c #026025",
"s#	c #016019",
"t#	c #853900",
"u#	c #105D43",
"v#	c #467C00",
"w#	c #B99D00",
"x#	c #E4D000",
"y#	c #DCA500",
"z#	c #896400",
"A#	c #036029",
"B#	c #E3E5E3",
"C#	c #0E6F12",
"D#	c #107E0A",
"E#	c #989300",
"F#	c #D5C700",
"G#	c #ECD500",
"H#	c #B89300",
"I#	c #666200",
"J#	c #035F2E",
"K#	c #01600F",
"L#	c #01601D",
"M#	c #055F3C",
"N#	c #98A800",
"O#	c #C6CC00",
"P#	c #105D46",
"Q#	c #107E00",
"R#	c #4C7C00",
"S#	c #BB9D00",
"T#	c #E5D100",
"U#	c #DFCB00",
"V#	c #BF9600",
"W#	c #01601B",
"X#	c #026024",
"Y#	c #045F32",
"Z#	c #0D5E5F",
"`#	c #BDC500",
" $	c #D7DAD7",
".$	c #E8E9E8",
"+$	c #0E6F13",
"@$	c #677800",
"#$	c #CCA300",
"$$	c #E4CF00",
"%$	c #D0C000",
"&$	c #A4A100",
"*$	c #949700",
"=$	c #0A5E53",
"-$	c #0A5E51",
";$	c #0B5E58",
">$	c #0D5D60",
",$	c #0F5D69",
"'$	c #125C74",
")$	c #CACF00",
"!$	c #E6E7E6",
"~$	c #105C48",
"{$	c #107D11",
"]$	c #817600",
"^$	c #D6A600",
"/$	c #DCC900",
"($	c #D5C400",
"_$	c #D2C100",
":$	c #D1C100",
"<$	c #D2C200",
"[$	c #125959",
"}$	c #5B7B00",
"|$	c #E2AA00",
"1$	c #EBD400",
"2$	c #0E6C19",
"3$	c #107E09",
"4$	c #707900",
"5$	c #E8AD00",
"6$	c #0F5E41",
"7$	c #107D0E",
"8$	c #7D7700",
"9$	c #9E6E00",
"0$	c #B36800",
"a$	c #107C11",
"b$	c #745300",
"c$	c #B36700",
"d$	c #0F603B",
"e$	c #734600",
"f$	c #813B00",
"g$	c #107D0C",
"h$	c #766200",
"i$	c #843900",
"j$	c #0E642E",
"k$	c #005F02",
"l$	c #045928",
"m$	c #8D6400",
"n$	c #084B3A",
"o$	c #005D03",
"p$	c #04572A",
"q$	c #B16700",
"r$	c #883800",
"s$	c #005D04",
"t$	c #015A10",
"u$	c #05542F",
"v$	c #AB6700",
"w$	c #015A0F",
"x$	c #01580D",
"y$	c #05512B",
"z$	c #B16600",
"A$	c #B36600",
"B$	c #B46600",
"C$	c #B16500",
"D$	c #9A5C00",
"E$	c #064C32",
"                                . . . . . . . + @ # $ % & * * = % - ; % > , ' ) ! . . . . ~ . .                                 ",
"                                . . . . { ] ^ / ( _ * : > > & * < < < & > : : : [ } | 1 ~ . . ~                                 ",
"                                . ~ 2 3 4 : : : : 5 5 6 6 6 6 6 6 7 7 7 6 7 7 7 : : 4 4 8 ] ~ .                                 ",
"                              9 0 a b > > c d 7 7 7 6 6 6 6 > > > > > > > > > > & d * c 4 4 e f 9                               ",
"                            g h i j k & 7 6 6 6 6 6 6 > > > > > > > > > > > > > > > > 6 d & 4 4 l   9                           ",
"                          g m n % c 7 6 6 6 6 > > > > > > > > o o o o o o o o o o > > > > > * p 4 q   9                         ",
"                        r s t u v 6 6 6 6 > > > > > > > o w w w w w w w w o o o o o o o > > > & p 4 x   9                       ",
"                      g y z A B 6 6 6 > > > > > > > o w w C C C C C C C C w w w o o o o o o o > & p D E   9                     ",
"                      F G H B 6 6 6 > > > > > > o w w C C I I I I I I I I C C C w w w o o o o o > c J K L                       ",
"                    M N O P 6 6 > > > > > > o w w C C I I Q R R S T U T R Q I I C C C w w o o o o o p D V W                     ",
"                  X Y Z ` 6 6 > > > > > > o w C C I Q S  ...+.@.#.$.%.&.*.=.-.;.I I I C C w w o o o o >.D ,.  9                 ",
"                '.).!.* 6 6 6 > > > > > o w C I Q ~.{.].^./.(._.:.<.[.}.|.1.2.3.4.;.C C I C C w o o o 5.J 6.7.                  ",
"                8.9.0.6 6 6 > > > > > o w C Q ~.a.$.b.c.d.e.f.g.g.h.g.f.i.j.k.l.m.n.o.w C C I C w o o o p D p.q.                ",
"              '.r.s.k 6 6 > > > > > o w C Q t.%.u.c.v.f.. . . . . . . . . . w.x.y.z.A.B.w w C C C w o o o C.D.E.                ",
"              F.G.c > 6 6 > > > > o w C Q H.I.J.K.f.. . . . . . . . . . . . . g.L.M.N.O.c o w w C C w o o 5.D P.W               ",
"            g Q.R.> 6 6 > > > > o w C Q S.I.T.U.h.. . . . . . . . . . . . . . . h.V.W.X.Y.c > o w C C w o o J D.E.              ",
". . . . . . Z.`. +> 6 6 > > > > w C .+++@+#+$+%+                                    &+*+=+-+;+> o w C C w o 5.w >+,+. . . . . . ",
". . . . . '+)+!+& > 6 > > > > o w C ~+{+]+^+%+                                        /+(+_+:+> > o w C w o o J D.| . . . . . . ",
". . . . . <+[+% > > 6 > > > > w C }+|+1+2+&+                                            3+4+5+j > > o w C w o J C 6+7+. . . . . ",
". . . . . 8+9+0+> 6 6 > > > > w ;.++@+).a+                                                b+c+d+k > o w C w o 5.D C 7+. ~ . . . ",
". . . . . e+f+g+> 6 > > > > o w ;.h+i+j+%+                                                /+k+l+* > > o w C w 5.w m+) . . . . . ",
". . . . n+o+p+k > 6 > > > > w C q+r+s+t+                                                    u+v+w+k > o w C w o J D.x+y+. . . . ",
". . . . z+A+B+> > 6 > > > > w ;.C+D+E+&+                                  %+%+              F+G+H+& > > o w C w w I+D.J+. ~ . . ",
". . . . K+L+M+> > > > > > > w ;.N+O+P+                                    &+%+              &+Q+R+* > > o w C w w C C @ . ~ . . ",
". . . . S+T+& > > > > > > o w U+r+V+W+                                  %+W+%+              %+2+X+% > > o w C w o J D.Y+. . . . ",
". . . Z+`+ @> > > > > > > o C ~..@2+%+                                  %+/+                  +@@@#@k > > o w C w J D.$@,+. . . ",
". . . %@l.&@> > > > > > o w C S.i+b+                                                          *@=@-@& > > o w C w J D.x+y+. . . ",
". . . ;@>@,@> > > > > > o w ;.'@)@W+                                                          /+!@~@c > > o w C w J D.x+y+. . . ",
". . . {@]@= > > > > > > o w ;.^@/@/+                                                          %+(@_@:@> > o w C w J C C # . . . ",
". . . <@; M+> > > > > > o w ;.[@}@%+                                                            |@1@2@> > > o w o w C D.@ . . . ",
". . . 3@:@* > > > > > > o w U+4@5@%+                                                            L.6@2@> > > o o o w C D.! . ~ . ",
". . . 3@ +* > > > > > > o w U+7@5@%+                                                            |@8@2@> > > o o o w I+D.9@. ~ . ",
". . . 0@2@* > > > > > > o w 4.4@a@%+                                                            b@>@* > > > o o o w I+D.c@. ~ . ",
". . . d@e@M+> > > > > o o w 4.+.f@%+                                                          %+<.g@d > > > o o w C h@D.i@. ~ . ",
". . . j@k@M+> > > > > o o w U+*./@&+                                                          %+!@]@7 > > > o o w C h@D.l@. ~ . ",
". . . m@n@0+> > > > > o o w U+^@o@*@                                                          &+p@q@v > > > o o w C h@D.i@. ~ . ",
". . . r@s@B+> > > > > o o w ;.=.t@b+                                                          t+u@w+v > > > o o w C h@C J+. ~ . ",
". . . v@w@O.k > > > > o o w C x@y@z@/+                                                        *+A@B@6 > > > o o w C I D.i@. ~ . ",
". . . C@D@E@& > > > > o o w C Q F@G@a+                                                      /+f@H@d 6 > > > o w C I I x+# . . . ",
". . . '+I@J@% > > > > o o o w ;.K@L@M@                                                      a+N@ @v 6 > > o o w C h@D.O@. . . . ",
". . . . P@Q@q@k > > > > o o w C R@S@z@%+                                                  %+T@U@V@6 6 > > o o w C h@C { . ~ . . ",
". . . . W@X@s@* > > > > o o o w Y@Z@`@3+                                                  *@ #.#P 6 6 > > o o w C h@D.+#. ~ . . ",
". . . . h.@###$#k > > > o o o w ;.%#)@&#                                                %+^+*#u v 6 6 > > o w C I I m+! . ~ . . ",
". . . . . =#-#;#c > > > > o o o >#,#'#)#%+                                              /+!#l+~#6 6 > > o o w C h@D.{#. . . . . ",
". . . . . g.]#^#w+k > > > > o o w Y@/#/@t+                                              F+(#H _#6 6 > > o w C I h@D.+#. ~ . . . ",
". . . . . '+:#<#g@* > > o > o o o >#[#}#|#&+                                          %+)#1#2#6 6 > > > o w C I I I+c@. ~ . . . ",
". . . . . . 3#4#5##@k > o o > o o o 6#7#8#u+/+                                        &#9#0#7 6 6 > > o o w C h@D.a#. . . . . . ",
". . . . . . Z+b#c#d#j > > o > > o o e#f#g#h#i#/+                                    F+j#k#~#6 6 > > > o w C I I C l#. ~ . . . . ",
"              m#n#!.* > > o o > > o o 5.o#p#q#r#g.. . . . . . . . . . . . . . . . s#k.J@B@v 6 > > > o o w C t#D.u#9             ",
"                v#w#x#> > o o o > > o o 5.y#z#J.A#f.. . . . . . . . . . . . . g.r#J.A@B#v 6 > > > o o w C .+.+D.C#  9           ",
"                D#E#F#e#> > o o > > > o o G#y#H#I#J#K#h.. . . . . . . . h.f.L#M#N#O#B#7 6 > > > o o o w C t#C P#Q#              ",
"                  R#S#T#e#> o o o > > > o o 5.U#V#`+:.j.V.s#e.w.w.e.W#X#Y#!@Z#`# $.$v 6 > > > o o o w C .+t#D.+$  9             ",
"                  g @$#$b o o o o o > > > > 4 5.$$%$A+&$*$p@=$-$=$;$>$,$'$)$ @!$7 6 6 > > > o o o w C .+t#D.~$Q#                ",
"                    {$]$^$5.o o o o o > > > : : > >.!+/$($_$%$:$<$Y. @$#% ~#v 6 6 > > > > o o o w C .+t#C [$q.                  ",
"                    '.}$y@|$e#o o o o 4 o > : : : : k & c 1$1$1$G#5.e#e#> > > > > > > > o o o w C .+.+t#D.2$  9                 ",
"                      3$4$/#5$w o o o o 4 4 4 : : : : : > > > > > > > > > > > > > > o o o o w C .+.+t#D.6$Q#                    ",
"                        7$8$9$0$w w o o o o 4 4 4 4 : : > > > > > > > > > > o o o o o o o w C I .+t#D.6$                        ",
"                          a$8$b$c$C w w w o o o o o o o o > > > > > o o o o o o o o o w w C I I t#D.d$                          ",
"                            a$8$e$f$I+C C w w w w o o o o o o o o o o o o o o w w w w C C I h@I D.l                             ",
"                              g$h$@.S.i$I C C C C w w w w w w w w w w w w w w C C C C I h@I D.D.j$                              ",
"                                k$l$m${.T i$h@I I C C C C C C C C C C C C C C I I h@h@I D.I+n$9@                                ",
"                                . . o$p$#.{.q$.+h@h@h@I I I I I I I I I I h@h@h@r$D.D.m+O@@ . .                                 ",
"                                . . . . s$t$u$[@v$q$;.r$I r$r$r$r$r$r$r$r$D.D.D.x+{#f ! . . . ~                                 ",
"                                . . . . . . . s$w$x$y$6.c$z$A$m+m+B$C$6+D$E${ l@y+. . . . . . .                                 "};
